/* XPM */
static char * gnome_stock_cancel_xpm[] = {
"20 20 23 1",
" 	c None",
".	c #861786178617",
"X	c #30C230C230C2",
"o	c #71C675D671C6",
"O	c #965896589658",
"+	c #59655D755965",
"@	c #30C234D330C2",
"#	c #410345144103",
"$	c #596559655965",
"%	c #69A669A669A6",
"&	c #965892489658",
"*	c #38E338E338E3",
"=	c #38E33CF338E3",
"-	c #8E388E388E38",
";	c #9E799E799E79",
":	c #514451445144",
">	c #79E77DF779E7",
",	c #492449244924",
"<	c #8E388A288E38",
"1	c #69A66DB669A6",
"2	c #A699A289A699",
"3	c #71C671C671C6",
"4	c #A699A699A699",
"                    ",
"                    ",
"  .Xo        O      ",
"  XXX+       X@o    ",
"  oXXX#    +XXXO    ",
"   o@XXX  $XXX%     ",
"    &*XXX=XXXo      ",
"      $XXXXX$       ",
"       .XXXX.       ",
"       -@XXX@&      ",
"       =X@@XX@      ",
"       XX=;*XX:     ",
"      =X@>  @X@     ",
"     $XX=   $XX,    ",
"     @X@&    @XX<   ",
"    oXX:     1XX+   ",
"    >*=2      3,4   ",
"                    ",
"                    ",
"                    "};
