/* XPM */
static char * gnome_stock_ok_xpm[] = {
"20 20 4 1",
" 	c None",
".	c #186118611861",
"X	c #28A22CB228A2",
"o	c #000004100000",
"                    ",
"                    ",
"                    ",
"               .X   ",
"              o     ",
"            XoX     ",
"           Xo       ",
"          .o        ",
"   XX    ..         ",
"    ..  X.X         ",
"     oX ..          ",
"     Xo..X          ",
"      oo.           ",
"       oX           ",
"       X            ",
"                    ",
"                    ",
"                    ",
"                    ",
"                    "};
