/* XPM */
static char * gnome_stock_menu_about2_xpm[] = {
"16 16 53 1",
".	c #FF00FF",
"+	c #FFFFFF",
"@	c #FFFBF7",
"#	c #EFEBE7",
"$	c #F7F3F7",
"%	c #E7E3DF",
"&	c #494941",
"*	c #F7E7D7",
"=	c #E7CB96",
"-	c #DFAE61",
";	c #E7B651",
">	c #E7CBA6",
",	c #C7C3BE",
"'	c #515149",
")	c #969696",
"!	c #D7CBC7",
"~	c #E7BA49",
"{	c #DFAE41",
"]	c #C78638",
"^	c #C7A68E",
"/	c #DFDBD7",
"(	c #C77D38",
"_	c #A66551",
":	c #D7D3CF",
"<	c #080C08",
"[	c #D7A641",
"}	c #AE5D30",
"|	c #9E5D49",
"1	c #DFCFCF",
"2	c #000000",
"3	c #F7EFEF",
"4	c #C79249",
"5	c #B67130",
"6	c #A64D28",
"7	c #963828",
"8	c #A68679",
"9	c #AEA6A6",
"0	c #595951",
"a	c #302C28",
"b	c #E7DBCF",
"c	c #BE9271",
"d	c #9E5541",
"e	c #AE8E8E",
"f	c #A69E96",
"g	c #181810",
"h	c #BEB6B6",
"i	c #797569",
"j	c #CFCBCF",
"k	c #383830",
"l	c #282820",
"m	c #8E8686",
"n	c #BEBAB6",
"o	c #413C38",
"................",
"................",
".......+++.@#...",
"...@@+@@$+@@%&..",
"...%@*=-;->#,'..",
"...)!;;~;{]^%//.",
".#@+=~~~;{(_:+@<",
".:#+>[{~{]}|1#!<",
"..2/34((567890a<",
"...3@bcdd|e:fg..",
"...@+#hih/#@jk..",
"...:/)lgm3@3nk..",
"...&kgg..i)moa..",
"..........<<g...",
"................",
"................"};
