/* XPM */
static char * tb_mic_xpm[] = {
"24 24 28 1",
" 	c #FF00FF",
".	c #000000",
"+	c #ABABAB",
"@	c #747474",
"#	c #D1D1D1",
"$	c #898989",
"%	c #F6F6F6",
"&	c #7E7E7E",
"*	c #989898",
"=	c #525252",
"-	c #FCFCFC",
";	c #CCCCCC",
">	c #888888",
",	c #D6D6D6",
"'	c #6F6F6F",
")	c #F7F7F7",
"!	c #868686",
"~	c #656565",
"{	c #8B8B8B",
"]	c #BBBBBB",
"^	c #4B4B4B",
"/	c #7A7A7A",
"(	c #555555",
"_	c #3F3F3F",
":	c #9C9C9C",
"<	c #6A6A6A",
"[	c #8F8F8F",
"}	c #393939",
"                        ",
"                        ",
"                        ",
"           ...          ",
"          .+@+.         ",
"         .#$%&*.        ",
"         .=-@;=.        ",
"         .*>,'*.        ",
"         .=)@;=.        ",
"       ...*!,~{...      ",
"       . .=%@]^. .      ",
"       . .{/,(@. .      ",
"       . ._:<[}. .      ",
"       .. ..... ..      ",
"        ..     ..       ",
"         .......        ",
"           ...          ",
"           ...          ",
"           ...          ",
"            .           ",
"                        ",
"                        ",
"                        ",
"                        "};
