/* XPM */
static char * tb_line_in_xpm[] = {
"24 24 16 1",
" 	c #FF00FF",
".	c #000000",
"+	c #A2A6A4",
"@	c #9FA4A1",
"#	c #5F6261",
"$	c #932B31",
"%	c #8C050D",
"&	c #530207",
"*	c #EDF3F0",
"=	c #E8F0EC",
"-	c #8B908E",
";	c #D73F48",
">	c #CC0814",
",	c #7A040B",
"'	c #B4BAB7",
")	c #9E060F",
"                        ",
"                        ",
"                        ",
"                        ",
"        ... ...         ",
"       .+@#.$%&.        ",
"       .*=-.;>,.        ",
"       .*=-.;>,.        ",
"       .*=-.;>,.        ",
"       .*=-.;>,.        ",
"       .*=-.;>,.        ",
"       .='-.>),.        ",
"        .=. .>.         ",
"        ... ...         ",
"         .   .          ",
"         .   .          ",
"         .. ..          ",
"          ...           ",
"           .            ",
"           .            ",
"                        ",
"                        ",
"                        ",
"                        "};
