/* XPM */
static char * tb_close_xpm[] = {
"24 24 2 1",
" 	c #FF00FF",
".	c #000000",
"                        ",
"                        ",
"                        ",
"                        ",
"                        ",
"                        ",
"       .    ..          ",
"       ..  ....         ",
"        .. ...          ",
"        .....           ",
"         ...            ",
"         ....           ",
"        ......          ",
"        .. ....         ",
"       ..   ....        ",
"       .     ..         ",
"                        ",
"                        ",
"                        ",
"                        ",
"                        ",
"                        ",
"                        ",
"                        "};
