/* XPM */
static char * tb_book_yellow_xpm[] = {
"24 24 28 1",
" 	c #FF00FF",
".	c #000000",
"+	c #AD9F5E",
"@	c #C2B887",
"#	c #BEB37F",
"$	c #B9AD74",
"%	c #B6B6B5",
"&	c #B1A466",
"*	c #A6A7A4",
"=	c #888D82",
"-	c #B5A86C",
";	c #B7AB72",
">	c #9E6769",
",	c #3C4035",
"'	c #54594B",
")	c #AFA160",
"!	c #91948E",
"~	c #AE8182",
"{	c #E1D5D2",
"]	c #F1F0EC",
"^	c #AAAAA7",
"/	c #636361",
"(	c #C2C2C0",
"_	c #14090A",
":	c #CBC298",
"<	c #CCCDC4",
"[	c #C5BB8C",
"}	c #999D91",
"                        ",
"                        ",
"                        ",
"                        ",
"         ..........     ",
"        .+@#$$$$$$.     ",
"        .@#$$$$$$.%     ",
"       .&@$$$$$$$.%     ",
"       .@#$$$$$$.%%     ",
"      .@#$$$$$$$.%*.    ",
"     .&@$$$$$$$.%%=.    ",
"     .@#$$$$$$$.%*.     ",
"    .-@$$$$$$$.%%=.     ",
"    .;#$$$$$$$.%*.      ",
"   .>...,')$$.%%!.      ",
"   .~{]]]^/...%*.       ",
"   .>{]]]]]]](%!.       ",
"    _..:<]]]](*.        ",
"       ...[<]}=.        ",
"          ...$.         ",
"             ..         ",
"                        ",
"                        ",
"                        "};
