/* XPM */
static char * tb_book_green_xpm[] = {
"24 24 28 1",
" 	c #FF00FF",
".	c #000000",
"+	c #616757",
"@	c #8B927E",
"#	c #838A76",
"$	c #78806C",
"%	c #B6B6B5",
"&	c #6A6F5F",
"*	c #A6A7A4",
"=	c #888D82",
"-	c #707665",
";	c #767B6B",
">	c #9E6769",
",	c #3C4035",
"'	c #54594B",
")	c #646A5A",
"!	c #91948E",
"~	c #AE8182",
"{	c #E1D5D2",
"]	c #F1F0EC",
"^	c #AAAAA7",
"/	c #636361",
"(	c #C2C2C0",
"_	c #14090A",
":	c #9DA293",
"<	c #CCCDC4",
"[	c #909585",
"}	c #999D91",
"                        ",
"                        ",
"                        ",
"                        ",
"          ..........    ",
"         .+@#$$$$$$.    ",
"         .@#$$$$$$.%    ",
"        .&@$$$$$$$.%    ",
"        .@#$$$$$$.%%    ",
"       .@#$$$$$$$.%*.   ",
"      .&@$$$$$$$.%%=.   ",
"      .@#$$$$$$$.%*.    ",
"     .-@$$$$$$$.%%=.    ",
"     .;#$$$$$$$.%*.     ",
"    .>...,')$$.%%!.     ",
"    .~{]]]^/...%*.      ",
"    .>{]]]]]]](%!.      ",
"     _..:<]]]](*.       ",
"        ...[<]}=.       ",
"           ...$.        ",
"              ..        ",
"                        ",
"                        ",
"                        "};
