/* XPM */
static char *magick[] = {
/* columns rows colors chars-per-pixel */
"32 32 246 2",
"   c Gray0",
".  c #4d4b3d",
"X  c #5f5243",
"o  c #5e5949",
"O  c #605c42",
"+  c #69574b",
"@  c #685b47",
"#  c #6d5f56",
"$  c #646049",
"%  c #656256",
"&  c #686555",
"*  c #70694b",
"=  c #756254",
"-  c #776a52",
";  c #776f51",
":  c #76695b",
">  c #7e6d59",
",  c #767158",
"<  c #7e7259",
"1  c #7b6b61",
"2  c #7d6d63",
"3  c #7f6e65",
"4  c #787461",
"5  c #7b7b7b",
"6  c #83745a",
"7  c #84775d",
"8  c #87795c",
"9  c #867f5f",
"0  c #827061",
"q  c #867569",
"w  c #887769",
"e  c #897e67",
"r  c #8c7b60",
"t  c #8c7d6b",
"y  c #8a7a6a",
"u  c #847971",
"i  c #FF00FF",
"p  c #858066",
"a  c #86816d",
"s  c #8f816d",
"d  c #918761",
"f  c #93866e",
"g  c #97846c",
"h  c #96816a",
"j  c #918a63",
"k  c #908a64",
"l  c #958865",
"z  c #91886b",
"x  c #95896f",
"c  c #958e69",
"v  c #958f6c",
"b  c #9a8e67",
"n  c #968175",
"m  c #998f71",
"M  c #97906f",
"N  c #98916a",
"B  c #9b916f",
"V  c #9c9168",
"C  c #97927a",
"Z  c #9b9271",
"A  c #9f9774",
"S  c #a68977",
"D  c #a49c6f",
"F  c #a49073",
"G  c #a19b7a",
"H  c #a29c7b",
"J  c #a29c7e",
"K  c #a49e79",
"L  c #a59f7e",
"P  c #af907d",
"I  c #aa9179",
"U  c #af9e77",
"Y  c #b3a17a",
"T  c #b5a779",
"R  c #b3ab7e",
"E  c #b6aa79",
"W  c #b9ac7e",
"Q  c #a29d84",
"!  c #a29e8a",
"~  c #a29f92",
"^  c #b69682",
"/  c #b79884",
"(  c #bb9a86",
")  c #bb9c85",
"_  c #bc9e85",
"`  c #bd9c88",
"'  c #a9a080",
"]  c #aea780",
"[  c #a5a39c",
"{  c #a5a49f",
"}  c #afab98",
"|  c #b4ad89",
" . c #bfa287",
".. c #bda683",
"X. c #b7b08a",
"o. c #bcb485",
"O. c #b8b18a",
"+. c #bbb597",
"@. c #b9b7aa",
"#. c #b8b7b1",
"$. c #bcbcbb",
"%. c #c6a38e",
"&. c #c7a48f",
"*. c #c1a289",
"=. c #c5a98a",
"-. c #c7ad8a",
";. c #c9a68f",
":. c #c9a790",
">. c #cba990",
",. c #ccab91",
"<. c #cfaf92",
"1. c #cdac91",
"2. c #c2b182",
"3. c #c4ba87",
"4. c #ceb38f",
"5. c #ceb78e",
"6. c #c9b987",
"7. c #c9bd88",
"8. c #ceb88c",
"9. c #c3bc99",
"0. c #d1b193",
"q. c #d2b393",
"w. c #d2b394",
"e. c #d3b494",
"r. c #d5b795",
"t. c #d7ba96",
"y. c #d6b995",
"u. c #d8bb96",
"i. c #dabe97",
"p. c #d9bd97",
"a. c #dbbf98",
"s. c #c1bda6",
"d. c #cfc38a",
"f. c #c9c29a",
"g. c #d5c291",
"h. c #d6c490",
"j. c #d8c692",
"k. c #dbc098",
"l. c #dcc198",
"z. c #ddc399",
"x. c #dec399",
"c. c #dfc599",
"v. c #dfc69a",
"b. c #dbcd92",
"n. c #ddcb94",
"m. c #dad09a",
"M. c #dfd59e",
"N. c #d6d1bc",
"B. c #dfd8b5",
"V. c #e0c79a",
"C. c #e3cb9b",
"Z. c #e1c99b",
"A. c #e3cc9b",
"S. c #e4cd9c",
"D. c #e5ce9c",
"F. c #e6cf9d",
"G. c #e3d696",
"H. c #e3d498",
"J. c #e7d19d",
"K. c #e6d998",
"L. c #e8d29e",
"P. c #e8d19d",
"I. c #e9d49e",
"U. c #ead59e",
"Y. c #ebd69f",
"T. c #ecd79f",
"R. c #e8da9b",
"E. c #ecd89f",
"W. c #eade9e",
"Q. c #eadfa5",
"!. c #edd9a0",
"~. c #eedba0",
"^. c #efdca1",
"/. c #e6deb5",
"(. c #e1dbb8",
"). c #e0dbbf",
"_. c #e3ddbd",
"`. c #f0dda1",
"'. c #f1dea1",
"]. c #f1dfa2",
"[. c #f0e29f",
"{. c #eae0a7",
"}. c #ece2ac",
"|. c #efe4ac",
" X c #eae1ad",
".X c #eae2b4",
"XX c #ebe3b9",
"oX c #eae3bc",
"OX c #f2e1a2",
"+X c #f3e2a3",
"@X c #f4e3a3",
"#X c #f5e4a3",
"$X c #f7e7a4",
"%X c #f6e5a4",
"&X c #f1e6a6",
"*X c #f2e6a8",
"=X c #f2e7ae",
"-X c #f5ebae",
";X c #f8e9a5",
":X c #f9eaa5",
">X c #faeba6",
",X c #fbeca6",
"<X c #fdefa7",
"1X c #f9edaa",
"2X c #f1e7b2",
"3X c #fdf0a7",
"4X c #fef0a7",
"5X c #fff2a9",
"6X c #fff2ab",
"7X c #fef1a8",
"8X c #fff2ac",
"9X c #fff3ae",
"0X c #fff3b1",
"qX c #fff3b2",
"wX c #fff3b4",
"eX c #fff4b5",
"rX c #fff4b7",
"tX c #fff4b8",
"yX c #fff5bb",
"uX c #fff5be",
"iX c #fff5bd",
"pX c #d8d8d7",
"aX c #eae6cb",
"sX c #edead7",
"dX c #eae8da",
"fX c #f2edd2",
"gX c #fff5c0",
"hX c #fff6c2",
"jX c #fff6c5",
"kX c #fff6c7",
"lX c #fff7c9",
"zX c #fff7ce",
"xX c #fff8d2",
"cX c #fff8d0",
"vX c #fff9d6",
"bX c #fff9da",
"nX c #fffade",
"mX c #fffae1",
"MX c #fffbe5",
"NX c #fffbea",
"BX c #fffceb",
"VX c #fffcee",
"CX c #fffcf0",
"ZX c #fffdf4",
"AX c #fffefa",
"SX c Gray100",
/* pixels */
"i i i i i i i i i i i i i i i i i i i i i i i   i i i i i i i i ",
"i i i i i i i i i i i i i i i i i i i i i i   u     i i i i i i ",
"i i i i i i i i i i i     i i i i i i i i   q / _ t       i i i ",
"i i i i i i i i i i   3 2     i i i i i i   _ 0.y.i.c.8.m     i ",
"i i i i i i i i i   n ( %.^ w       i i   : t.k.V.S.I.~.OXb.a   ",
"i i i i i i i i   n ` %.&.>.0.=.r e         - < U j.@X;X<XW.  i ",
"i i i i i i i   n ` %.>.<.e.u.l.V.S.L.h.V d           &XeXG   i ",
"i i i i i i   2 ( >.<.e.t.k.v.S.L.!.'.#X:X3X8Xm.$   p f.jX  i i ",
"i i i i i     0 *.q.y.i.c.C.J.T.`.@X;X<X8XqX=X]   4 +.B._.  i i ",
"i i i i i   N.  g -.c.6     T +X;X[.7.*XtX2XX.  & ! ).fX~   i i ",
"i i i i i   xX9.  @     b *   K.5XW   B O.,   . % } sXVX  i i i ",
"i i i i i   |       l n.%XG.  j M.  X               [ pX  i i i ",
"i i i i i     7 8 g.!.OX;X4XD   <   P S +       i i       i i i ",
"i i i     t -.c.S.I.^.#X,X5XqX9   = %.%.;._ I t     i i i i i i ",
"i     w  .r.a.V.F.T.].$X<X9XeXZ   ^ :.,.<.w.r.4...f       i i i ",
"  # ^ ,.q.t.z.C.L.~.@X:X5X0Xc   > 1.0.e.y.p.l.c.Z.S.g.2.z       ",
"  1 ;.<.r.i.v.D.Y.`.%X<X8XQ.    h r.t.i.l.V.C.D.L.Y.~.].H.;   i ",
"i   ) 0.y.l.Z.J.!.OX;X4X9XN   o   F x.V.A.J.I.E.^.OX#X;X,XA   i ",
"i   y e.p.c.S.I.^.#X,X5XqXc   cX'   Y J.U.!.`.+X%X:X<X5XW.  i i ",
"i i   =.k.Z.J.E.OX$X<X9XrXv   kXgXc   6.].@X$X>X<X5X9XqXH   i i ",
"i i   s z.C.L.~.@X>X5XqXyXM   uX|.c   E R.,X4X6X9XeXtX X  i i i ",
"i i i   5.D.Y.'.%X<X8XeXuXH   m.R   D d.3X8X0XeXyXuXhXQ   i i i ",
"i i i   x P.!.+X;X7X0XtXhX/.  O   k 3.1XqXrXyXgXjXlXoX  i i i i ",
"i i i i   U.`.%X,X6XwXyXjXzX    k o.-XtXiXgXjXlXzXxX!   i i i i ",
"i i i i   g.OX;X3X9XrXgXlX(.%   L }.uXhXkXzXcXvXbXaX  i i i i i ",
"i i i i   Z @X>X5XqXyX.XQ     i   C XXzXxXvXbXnXMX~   i i i i i ",
"i i i i i   $X<X9X{.J     i i i i     s.bXmXMXNXdX  i i i i i i ",
"i i i i i   :XK.K     i i i i i i i i   @.BXCXZX{   i i i i i i ",
"i i i i i         i i i i i i i i i i i   #.AXSX  i i i i i i i ",
"i i i i i i i i i i i i i i i i i i i i i   $.SX  i i i i i i i ",
"i i i i i i i i i i i i i i i i i i i i i i   5   i i i i i i i ",
"i i i i i i i i i i i i i i i i i i i i i i i   i i i i i i i i "
};
