/* XPM */
static char *magick[] = {
/* columns rows colors chars-per-pixel */
"20 20 2 1",
"  c Red",
". c #FF00FF",
/* pixels */
".......      .......",
".....          .....",
"...    ......    ...",
"..   .........    ..",
"..  .........     ..",
".  ..........   .  .",
".  .........   ..  .",
"  .........   ....  ",
"  ........   .....  ",
"  .......   ......  ",
"  ......   .......  ",
"  .....   ........  ",
"  ....   .........  ",
".  ..   .........  .",
".  .   ..........  .",
"..    ..........  ..",
"..    .........   ..",
"...    ......    ...",
".....          .....",
".......      ......."
};
