/* XPM */
static char * tb_copy_xpm[] = {
"20 20 7 1",
" 	c None",
".	c #000000000000",
"X	c #CF3CCF3CCF3C",
"o	c #18611C711861",
"O	c #410341034103",
"+	c #965892489658",
"@	c #FFFFFFFFFFFF",
"                    ",
"                    ",
"                    ",
"   .........        ",
"   .XXXXXXX.        ",
"   .XoO+O+X..       ",
"   .XXXXXXX. .      ",
"   .XOoO.........   ",
"   .XXXX.@@@@@@@.   ",
"   .XOO+.@oO+O+@..  ",
"   .XXXX.@@@@@@@. . ",
"   .XXXX.@OoO+O@..  ",
"   ......@@@@@@@. . ",
"    . . .@OO+@@@..  ",
"     . ..@@@@@@@. . ",
"        .@@@@@@@..  ",
"        ......... . ",
"         . . . . .  ",
"          . . . . . ",
"                    "};
