/* XPM */
static char * tb_exit_xpm[] = {
"20 20 6 1",
" 	c None",
".	c #000000000000",
"X	c #FFFFFFFFFFFF",
"o	c #79E77DF779E7",
"O	c #CF3CCF3CCF3C",
"+	c #618565956185",
"                    ",
"                    ",
"       ...........  ",
"       .XXXXXXXXo.  ",
"      O.XXXXXXXXo.  ",
"     O+OXXXXXXXXo.  ",
"   OOO++OXXXXXXXo.  ",
"  O++++++OXXXXXXo.  ",
"  O+++++++OXX..Xo.  ",
"  O++++++++XX..Xo.  ",
"  O++++++.XXXXXXo.  ",
"   ...++.XXXXXXXo.  ",
"      +.XXXXXXXXo.  ",
"      ..XXXXXXXXo.  ",
"       .XXXXXXXXo.  ",
"       .XXXXXXXXo.  ",
"       .XXXXXXooo.  ",
"       .XXXoooooo.  ",
"                    ",
"                    "};
