/* XPM */
static char * tb_new_xpm[] = {
"20 20 3 1",
" 	c None",
".	c #000000000000",
"X	c #FFFFFFFFFFFF",
"                    ",
"   .......          ",
"   .XXXXX..         ",
"   .XXXXX.X.        ",
"   .XXXXX.XX.       ",
"   .XXXXX.XXX.      ",
"   .XXXXX......     ",
"   .XXXXXXXXXX.     ",
"   .XXXXXXXXXX..    ",
"   .XXXXXXXXXX. .   ",
"   .XXXXXXXXXX..    ",
"   .XXXXXXXXXX. .   ",
"   .XXXXXXXXXX..    ",
"   .XXXXXXXXXX. .   ",
"   .XXXXXXXXXX..    ",
"   .XXXXXXXXXX. .   ",
"   .............    ",
"    . . . . . . .   ",
"     . . . . . .    ",
"                    "};
