/* XPM */
static char * tb_open_xpm[] = {
"20 20 3 1",
" 	c None",
".	c #000000000000",
"X	c #9E799A699E79",
"                    ",
"                    ",
"                    ",
"     ...            ",
"   ..XXX........    ",
"  .XXXXXXXXXXXXX.   ",
"  .XXX............. ",
"  .XXX.XXXXXXXXXXX..",
"  .XX.XXXXXXXXXXXX. ",
"  .XX.XXXXXXXXXXX. .",
"  .XX.XXXXXXXXXXX.. ",
"  .X.XXXXXXXXXXXX. .",
"  .X.XXXXXXXXXXX. . ",
"  .X.XXXXXXXXXXX..  ",
"  .XXXXXXXXXXXXX. . ",
"   ............. .  ",
"    . . . . . . .   ",
"     . . . . . .    ",
"                    ",
"                    "};
