/* XPM */
static char * tb_paste_xpm[] = {
"20 20 7 1",
" 	c None",
".	c #000000000000",
"X	c #CF3CCF3CCF3C",
"o	c #FFFFFFFFFFFF",
"O	c #18611C711861",
"+	c #965892489658",
"@	c #410341034103",
"                    ",
"                    ",
"                    ",
"    .........       ",
"   .XXX.X.XXX.      ",
"   .X..XXX..X.      ",
"   .X.......X. .    ",
"   .XXXXXXXXX..     ",
"   .XXXXX........   ",
"   .XXXXX.oooooo.   ",
"   .XXXXX.oO+O@o..  ",
"   .XXXXX.oooooo. . ",
"   .XXXXX.oO@@+o..  ",
"   .XXXXX.oooooo. . ",
"   .XXXXX.oO+O@o..  ",
"    ......oooooo. . ",
"     . . .........  ",
"      . . . . . . . ",
"           . . . .  ",
"                    "};
