/* XPM */
static char * tb_properties_xpm[] = {
"20 20 7 1",
" 	c None",
".	c #000000000000",
"X	c #FFFFFFFFFFFF",
"o	c #CF3CCF3CCF3C",
"O	c #618565956185",
"+	c #B6DAB2CAB6DA",
"@	c #49244D344924",
"                    ",
"                    ",
"    ..........      ",
"    .XXXXXXXX..     ",
"    .X..X...X. .    ",
"    .XXXXXXXX..     ",
"    .X...X..X. .    ",
"    .XXXXXXXX..     ",
"    .X....X.X. .    ",
"    .XXXXXXXX..     ",
"    .X.X...XX. .    ",
"    .XXXXXXXX..     ",
"    .X..XX.... .    ",
"    .XXXXX..oO.     ",
"    .XXXXX.o+.O.    ",
"    ........@@.O.   ",
"     . . . ..@@.O.. ",
"      . . .  .@@..  ",
"              ... . ",
"               . .  "};
