/* XPM */
static char * tb_save_xpm[] = {
"20 20 5 1",
" 	c None",
".	c #000000000000",
"X	c #49244D344924",
"o	c #FFFFFFFFFFFF",
"O	c #9E799A699E79",
"                    ",
" ...XXXXXXXXXX...   ",
" .X.oooooooooo...   ",
" ...oOOOOOOOOo....  ",
" ...oooooooooo... . ",
" ...oOOOOOOOOo....  ",
" ...oooooooooo... . ",
" ...oOOOOOOOOo....  ",
" ....oooooooo.... . ",
" .................  ",
" ................ . ",
" .................  ",
" ....OOOOOOOO.... . ",
" ....O..OOOOO.....  ",
" ....O..OOOOO.... . ",
" ....O..OOOOO.....  ",
" ....OOOOOOOO.... . ",
"   . . . . . . . .  ",
"  . . . . . . . . . ",
"                    "};
