/* XPM */
static char * tb_unknown_xpm[] = {
"20 20 2 1",
" 	c None",
".	c #000000000000",
"                    ",
"                    ",
"     ........       ",
"    ...........     ",
"    .    ......     ",
"           ....     ",
"           ....     ",
"           ....     ",
"          ....      ",
"         ....       ",
"        ....        ",
"       ....         ",
"       ....         ",
"                    ",
"                    ",
"       ....         ",
"       ....         ",
"       ....         ",
"                    ",
"                    "};
